<svg width="32" height="32" viewBox="0 0 32 32" fill="none" xmlns="http://www.w3.org/2000/svg">
<path d="M6 16C6 21.5228 10.4772 26 16 26C21.5228 26 26 21.5228 26 16C26 10.4772 21.5228 6 16 6C10.4772 6 6 10.4772 6 16Z" stroke="#7F8FA4" stroke-width="2"/>
<path d="M31 2L27.5 5.5L24 9L16.5 16.5L8.5 24.5L2.5 30.5L2 31C1.72386 31.2761 1.27614 31.2761 1 31C0.723858 30.7239 0.723858 30.2761 1 30L15.5 15.5L16 15L18 13L25 6L29 2L30 1C30.2761 0.723858 30.7239 0.723858 31 1C31.2761 1.27614 31.2761 1.72386 31 2Z" fill="#7F8FA4"/>
<path d="M16 16L31 1M16 16L16.5 16.5M16 16L15.5 15.5M16 16L1 31M31 1V1C31.2761 1.27614 31.2761 1.72386 31 2L27.5 5.5L24 9L16.5 16.5M31 1V1C30.7239 0.723858 30.2761 0.723858 30 1L29 2L25 6L18 13L16 15L15.5 15.5M16.5 16.5L8.5 24.5L2.5 30.5L2 31C1.72386 31.2761 1.27614 31.2761 1 31V31M15.5 15.5L1 30V30C0.723858 30.2761 0.723858 30.7239 1 31V31" stroke="#7F8FA4" stroke-width="0.5"/>
</svg>
